<svg xmlns="http://www.w3.org/2000/svg" xmlns:xlink="http://www.w3.org/1999/xlink" width="1000" zoomAndPan="magnify" viewBox="0 0 750 749.999995" height="1000" preserveAspectRatio="xMidYMid meet" version="1.0"><path fill="#a67759" d="M 592.753906 60.308594 C 588.203125 42.8125 576.253906 24.039062 559.613281 15.789062 C 527.183594 0 492.195312 21.191406 471.144531 45.941406 C 458.058594 61.445312 447.105469 79.082031 437.433594 96.863281 C 427.050781 115.777344 418.089844 135.550781 409.984375 155.605469 C 401.59375 176.226562 394.339844 197.277344 388.082031 218.613281 C 382.816406 189.597656 373.429688 161.578125 356.363281 136.828125 C 347.828125 124.597656 337.871094 113.074219 326.777344 103.121094 C 317.816406 95.15625 308.003906 87.617188 296.90625 82.921875 C 287.804688 78.941406 277.847656 76.238281 267.890625 77.375 C 257.507812 78.511719 248.121094 82.921875 240.726562 90.320312 C 223.230469 107.957031 219.390625 135.550781 218.253906 159.160156 C 216.832031 192.871094 218.109375 226.722656 222.234375 260.289062 C 226.359375 293.714844 231.480469 328.417969 239.160156 361.984375 C 246.699219 394.839844 256.371094 427.269531 267.609375 458.988281 C 278.84375 490.707031 291.789062 521.714844 307.433594 551.582031 C 311.132812 558.554688 314.972656 565.238281 318.953125 572.066406 C 301.460938 594.113281 283.824219 616.15625 265.757812 637.777344 C 238.734375 669.921875 209.433594 700.929688 177.148438 727.8125 C 169.609375 734.070312 162.070312 740.1875 154.105469 745.875 C 152.257812 747.15625 153.820312 750 155.8125 748.863281 C 193.503906 728.949219 224.796875 698.9375 253.953125 668.214844 C 268.605469 652.710938 283.113281 637.066406 297.476562 621.136719 C 307.71875 609.898438 318.101562 598.949219 328.484375 587.851562 C 329.90625 590.128906 331.328125 592.546875 332.75 594.824219 C 341.285156 609.046875 349.675781 623.269531 359.347656 636.925781 C 361.625 640.195312 364.042969 643.464844 366.316406 646.738281 C 368.734375 650.152344 371.722656 653.421875 373.855469 656.980469 C 375.992188 660.535156 381.539062 657.261719 379.402344 653.707031 C 375.421875 646.878906 372.578125 639.058594 369.019531 631.945312 C 365.324219 624.691406 361.480469 617.4375 357.359375 610.324219 C 350.957031 599.375 344.699219 588.28125 338.726562 577.042969 C 340.289062 575.335938 341.855469 573.773438 343.277344 572.066406 C 359.0625 554.996094 374.710938 537.929688 390.070312 520.433594 C 405.71875 502.65625 421.078125 484.734375 435.160156 465.816406 C 462.042969 429.6875 485.226562 391.144531 507.558594 352.027344 C 529.175781 314.335938 548.945312 275.507812 563.882812 234.6875 C 571.5625 213.777344 577.820312 192.441406 582.515625 170.824219 C 586.210938 153.898438 590.195312 136.828125 592.898438 119.761719 C 595.742188 100.273438 597.734375 79.792969 592.753906 60.308594 Z M 564.449219 99.707031 C 564.308594 101.980469 564.023438 104.117188 563.738281 106.390625 C 563.597656 107.246094 563.597656 107.957031 563.453125 108.808594 C 563.3125 109.378906 563.3125 109.945312 563.171875 110.65625 C 562.460938 115.066406 561.746094 119.476562 560.894531 123.886719 C 559.328125 132.417969 557.480469 140.8125 555.632812 149.347656 C 551.363281 168.832031 547.097656 188.035156 541.125 207.09375 C 537.996094 217.050781 534.582031 227.003906 530.742188 236.820312 C 528.890625 241.796875 526.902344 246.632812 524.910156 251.46875 C 524.765625 251.753906 524.625 252.179688 524.484375 252.609375 C 524.484375 252.464844 524.625 252.324219 524.625 252.179688 C 524.199219 253.460938 523.488281 254.742188 523.058594 255.878906 C 522.066406 258.15625 521.070312 260.574219 520.074219 262.847656 C 511.539062 281.90625 502.152344 300.398438 492.195312 318.746094 C 471.570312 356.582031 450.378906 394.558594 426.054688 430.257812 C 413.539062 448.605469 400.3125 466.527344 387.226562 484.449219 C 385.664062 486.582031 383.957031 488.859375 382.390625 490.992188 C 381.679688 491.988281 380.824219 492.984375 380.113281 493.980469 C 379.6875 494.546875 379.402344 494.972656 378.976562 495.542969 C 378.835938 495.828125 376.984375 498.105469 377.695312 497.390625 C 374.566406 501.375 371.296875 505.925781 368.167969 509.765625 C 361.199219 518.585938 354.226562 527.402344 347.257812 536.222656 C 341.144531 543.761719 335.167969 551.441406 329.054688 559.121094 C 316.109375 533.804688 303.167969 508.769531 293.351562 481.890625 C 271.304688 421.15625 254.808594 357.148438 246.414062 293.429688 C 242.148438 261.140625 240.726562 228.710938 240.867188 196.140625 C 241.011719 180.351562 241.152344 164.28125 243 148.632812 C 243 148.351562 243.144531 147.496094 243.144531 147.070312 C 243.144531 146.785156 243.285156 146.5 243.285156 146.074219 C 243.570312 144.652344 243.710938 143.085938 243.996094 141.664062 C 244.566406 138.535156 245.277344 135.550781 245.988281 132.5625 C 246.699219 129.859375 247.410156 127.300781 248.40625 124.738281 C 248.832031 123.742188 249.117188 122.75 249.542969 121.753906 C 249.828125 121.183594 249.972656 120.757812 250.253906 120.1875 C 251.25 118.195312 252.246094 116.0625 253.527344 114.214844 C 253.953125 113.503906 254.523438 112.648438 254.949219 111.9375 C 254.949219 111.9375 255.234375 111.652344 255.375 111.226562 C 255.519531 111.085938 255.660156 110.941406 255.800781 110.800781 C 257.082031 109.378906 258.21875 108.097656 259.644531 106.816406 C 259.785156 106.675781 259.925781 106.535156 260.210938 106.390625 C 260.921875 105.964844 261.492188 105.539062 262.203125 105.109375 C 262.914062 104.683594 263.625 104.257812 264.335938 103.972656 C 265.902344 103.546875 267.609375 103.121094 269.171875 102.691406 C 270.027344 102.691406 270.878906 102.550781 271.734375 102.550781 C 272.726562 102.550781 273.722656 102.550781 274.71875 102.691406 C 274.863281 102.691406 275.003906 102.691406 275.144531 102.691406 C 276.996094 103.121094 278.703125 103.402344 280.550781 103.972656 C 281.6875 104.257812 282.683594 104.683594 283.679688 105.109375 C 284.105469 105.253906 284.390625 105.394531 284.535156 105.394531 C 289.085938 107.386719 293.351562 109.945312 297.476562 112.792969 C 298.613281 113.644531 299.753906 114.5 301.03125 115.351562 C 301.175781 115.351562 301.175781 115.492188 301.316406 115.636719 C 301.460938 115.777344 301.742188 115.921875 301.886719 116.207031 C 304.304688 118.195312 306.722656 120.332031 309.140625 122.464844 C 314.261719 127.15625 318.953125 132.136719 323.507812 137.398438 C 324.644531 138.679688 325.78125 139.957031 326.777344 141.238281 C 327.203125 141.808594 327.773438 142.375 328.199219 142.945312 C 328.199219 142.945312 328.910156 143.941406 329.335938 144.367188 C 329.765625 144.9375 330.191406 145.503906 330.191406 145.503906 C 330.617188 146.074219 331.042969 146.644531 331.472656 147.210938 C 332.609375 148.777344 333.746094 150.484375 334.882812 152.191406 C 338.582031 157.878906 341.996094 163.855469 344.984375 169.96875 C 345.695312 171.390625 346.40625 172.8125 347.117188 174.378906 C 347.542969 175.230469 347.828125 175.945312 348.253906 176.796875 C 348.398438 177.082031 348.539062 177.507812 348.679688 177.792969 C 349.960938 180.78125 351.097656 183.910156 352.238281 187.039062 C 354.511719 193.4375 356.503906 199.980469 358.070312 206.667969 C 359.777344 213.351562 361.199219 220.035156 362.335938 226.863281 C 362.90625 230.132812 363.472656 233.265625 363.757812 236.535156 C 363.332031 233.121094 364.042969 238.667969 364.042969 239.523438 C 364.183594 241.371094 364.46875 243.078125 364.613281 244.925781 C 366.035156 258.722656 366.601562 272.519531 366.746094 286.316406 C 366.746094 293.144531 366.601562 299.828125 366.316406 306.65625 C 366.035156 313.625 371.867188 319.457031 378.410156 320.3125 C 384.949219 321.164062 392.0625 317.183594 393.628906 310.355469 C 402.589844 271.523438 412.402344 233.121094 425.628906 195.570312 C 429.042969 185.898438 432.597656 176.371094 436.441406 166.984375 C 436.867188 165.84375 437.292969 164.847656 437.71875 163.710938 C 438.003906 163 438.289062 162.289062 438.574219 161.578125 C 438.714844 161.152344 439.425781 159.585938 439.570312 159.300781 C 440.136719 157.878906 440.847656 156.457031 441.417969 155.035156 C 443.410156 150.484375 445.402344 145.933594 447.535156 141.523438 C 456.066406 123.460938 465.597656 105.679688 476.550781 88.894531 C 479.109375 84.914062 481.8125 81.074219 484.515625 77.089844 C 485.9375 75.242188 487.21875 73.25 488.640625 71.402344 C 488.78125 71.257812 488.925781 71.117188 489.066406 70.976562 C 489.636719 70.265625 490.203125 69.550781 490.773438 68.839844 C 495.609375 63.011719 501.15625 57.746094 506.988281 52.769531 C 507.699219 52.199219 508.410156 51.773438 509.121094 51.203125 C 510.6875 50.066406 512.25 49.070312 513.957031 48.074219 C 515.378906 47.222656 516.660156 46.511719 518.082031 45.65625 C 518.933594 45.230469 519.789062 44.804688 520.5 44.378906 C 520.785156 44.234375 521.496094 43.949219 522.066406 43.664062 C 522.347656 43.523438 522.492188 43.523438 522.632812 43.523438 C 523.34375 43.238281 524.054688 42.953125 524.765625 42.8125 C 526.472656 42.242188 528.039062 41.816406 529.746094 41.390625 C 530.457031 41.246094 531.023438 41.105469 531.738281 40.964844 C 533.015625 40.820312 534.296875 40.820312 535.71875 40.820312 C 536.574219 40.820312 537.285156 40.820312 538.136719 40.964844 C 538.277344 40.964844 538.421875 40.964844 538.5625 40.964844 C 538.847656 40.964844 539.132812 41.105469 539.273438 41.105469 C 540.128906 41.246094 540.839844 41.53125 541.691406 41.675781 C 542.261719 41.816406 542.832031 42.101562 543.542969 42.242188 C 544.820312 43.097656 546.246094 43.664062 547.523438 44.378906 C 547.949219 44.660156 548.378906 44.945312 548.804688 45.230469 C 550.226562 46.511719 551.507812 47.789062 552.785156 49.070312 C 553.214844 49.496094 553.640625 50.066406 554.066406 50.492188 C 554.210938 50.777344 554.492188 50.917969 554.636719 51.203125 C 555.917969 53.054688 557.195312 54.902344 558.191406 56.894531 C 559.328125 58.886719 560.324219 60.875 561.179688 62.867188 C 561.464844 63.722656 561.746094 64.574219 562.03125 65.429688 C 562.601562 67.277344 563.027344 68.984375 563.453125 70.832031 C 563.738281 71.828125 563.882812 72.824219 564.023438 73.960938 C 564.023438 74.105469 564.023438 74.246094 564.023438 74.246094 C 565.304688 82.496094 565.160156 91.171875 564.449219 99.707031 Z M 564.449219 99.707031 " fill-opacity="1" fill-rule="nonzero"/></svg>